<svg xmlns="http://www.w3.org/2000/svg" shape-rendering="geometricPrecision"
    text-rendering="geometricPrecision" image-rendering="optimizeQuality" fill-rule="evenodd"
    clip-rule="evenodd" viewBox="0 0 512 395.82">
    <path fill-rule="nonzero" fill="#002fff"
        d="M336.992 124.701L419.008 4.878c3.461-5.072 10.382-6.378 15.454-2.917a11.053 11.053 0 013.258 3.446l72.668 120.451c3.173 5.265 1.477 12.109-3.789 15.281a11.092 11.092 0 01-5.746 1.598l-155.109.013c-6.155 0-11.147-4.992-11.147-11.146 0-2.606.895-5.005 2.395-6.903z" />
    <path fill="#0073ed" d="M345.744 131.604l82.45-120.458 72.659 120.458z" />
    <path fill-rule="nonzero" fill="#002fff"
        d="M340.946 122.635l159.907-.01c6.155 0 11.147 4.991 11.147 11.146 0 3.298-1.435 6.262-3.711 8.303L266.622 392.412c-4.255 4.423-11.294 4.558-15.717.303-3.17-3.048-4.137-7.525-2.865-11.447l82.326-250.936c1.527-4.702 5.889-7.688 10.58-7.697z" />
    <path fill="#0073ed" d="M340.946 133.771h159.907L258.612 384.705z" />
    <path fill-rule="nonzero" fill="#002fff"
        d="M11.698 113.721l160.338-.052c5.051 0 9.312 3.372 10.66 7.989l86.451 259.563c1.923 5.818-1.234 12.097-7.051 14.02a11.104 11.104 0 01-11.526-2.886L3.092 132.486c-4.231-4.446-4.054-11.485.392-15.717a11.085 11.085 0 018.214-3.048z" />
    <path fill="#0073ed" d="M11.147 124.823l160.889-.052 86.576 259.934z" />
    <path fill-rule="nonzero" fill="#002fff"
        d="M2.496 117.742L84.777 4.617c3.606-4.977 10.565-6.09 15.543-2.483a11.053 11.053 0 013.005 3.268l75.198 113.231c3.389 5.121 1.984 12.023-3.136 15.412a11.078 11.078 0 01-6.138 1.847v.025H11.147C4.992 135.917 0 130.925 0 124.771c0-2.664.937-5.112 2.496-7.029z" />
    <path fill="#0073ed" d="M11.147 124.771L93.79 11.146l75.459 113.625z" />
    <path fill-rule="nonzero" fill="#002fff"
        d="M248.076 387.667l-86.285-258.503a11.098 11.098 0 01-.902-4.393c0-6.155 4.992-11.146 11.147-11.146h167.36c1.095.018 2.209.181 3.309.524 5.865 1.826 9.138 8.065 7.313 13.931l-80.784 259.37c-1.043 3.283-3.581 6.051-7.096 7.226-5.818 1.946-12.116-1.192-14.062-7.009z" />
    <path fill="#0073ed" d="M172.036 124.771l86.576 259.37 80.784-259.37z" />
    <path fill-rule="nonzero" fill="#002fff"
        d="M264.842 17.701l-80.906 115.602c-8.686-7.955-13.446 7.048-18.303-.149L84.691 17.627c-3.509-5.023-2.281-11.946 2.742-15.456A11.036 11.036 0 0193.79.173L255.882.044c6.131 0 11.102 4.971 11.102 11.102 0 2.452-.796 4.718-2.142 6.555z" />
    <path fill="#0073ed" d="M255.882 11.146l-81.045 115.801L93.79 11.271z" />
    <path fill-rule="nonzero" fill="#002fff"
        d="M330.427 131.551l-83.065-113.22a11.094 11.094 0 01-2.626-7.185C244.736 4.992 249.728 0 255.882 0h169.512c2.338.017 4.695.748 6.705 2.264 4.903 3.701 5.878 10.683 2.177 15.586l-85.999 113.832c-.642.84-1.41 1.607-2.308 2.264-4.952 3.629-11.913 2.557-15.542-2.395z" />
    <path fill="#0073ed" d="M255.882 11.146l83.514 113.831 85.998-113.831z" />
    <path fill-rule="nonzero" fill="#002fff"
        d="M163.529 117.572l83.218-113c3.629-4.951 10.591-6.023 15.542-2.394a11.143 11.143 0 012.524 2.567l83.551 113.452c3.629 4.952 2.557 11.913-2.395 15.542a11.065 11.065 0 01-6.573 2.151v.027h-167.36c-6.155 0-11.147-4.992-11.147-11.146 0-2.745.994-5.257 2.64-7.199zm92.187-87.674l-61.661 83.727h123.321l-61.66-83.727z" />
    <path fill="#0073ed" d="M172.036 124.771l83.68-113.625 83.68 113.625z" />
</svg>