<?xml version="1.0" encoding="utf-8"?><svg version="1.1" id="Layer_1" xmlns="http://www.w3.org/2000/svg" xmlns:xlink="http://www.w3.org/1999/xlink" x="0px" y="0px" width="111.811px" height="122.88px" viewBox="0 0 111.811 122.88" enable-background="new 0 0 111.811 122.88" xml:space="preserve"><g><path fill-rule="evenodd" clip-rule="evenodd" d="M55.713,0c20.848,13.215,39.682,19.467,55.846,17.989 c2.823,57.098-18.263,90.818-55.63,104.891C19.844,109.708-1.5,77.439,0.083,17.123C19.058,18.116,37.674,14.014,55.713,0L55.713,0 z M33.784,66.775c-1.18-1.01-1.318-2.786-0.309-3.967c1.011-1.181,2.787-1.318,3.967-0.309l11.494,9.875l25.18-27.684 c1.047-1.15,2.828-1.234,3.979-0.188c1.149,1.046,1.233,2.827,0.187,3.978L51.262,78.188l-0.002-0.002 c-1.02,1.121-2.751,1.236-3.91,0.244L33.784,66.775L33.784,66.775z"/></g></svg>