<svg xmlns="http://www.w3.org/2000/svg" shape-rendering="geometricPrecision" text-rendering="geometricPrecision" image-rendering="optimizeQuality" fill-rule="evenodd" clip-rule="evenodd" viewBox="0 0 393 511.528"><path d="M59.096 0c32.639 0 59.098 26.459 59.098 59.096 0 32.638-26.459 59.098-59.098 59.098C26.459 118.194 0 91.734 0 59.096 0 26.459 26.459 0 59.096 0zm274.808 393.335c32.637 0 59.096 26.459 59.096 59.097 0 32.637-26.459 59.096-59.096 59.096-32.638 0-59.097-26.459-59.097-59.096 0-32.638 26.459-59.097 59.097-59.097zm-274.808 0c32.639 0 59.098 26.459 59.098 59.097 0 32.637-26.459 59.096-59.098 59.096C26.459 511.528 0 485.069 0 452.432c0-32.638 26.459-59.097 59.096-59.097zm274.808-196.668c32.637 0 59.096 26.459 59.096 59.096 0 32.639-26.459 59.098-59.096 59.098-32.638 0-59.097-26.459-59.097-59.098 0-32.637 26.459-59.096 59.097-59.096zm-274.808 0c32.639 0 59.098 26.459 59.098 59.096 0 32.639-26.459 59.098-59.098 59.098C26.459 314.861 0 288.402 0 255.763c0-32.637 26.459-59.096 59.096-59.096zM333.904 0C366.541 0 393 26.459 393 59.096c0 32.638-26.459 59.098-59.096 59.098-32.638 0-59.097-26.46-59.097-59.098C274.807 26.459 301.266 0 333.904 0z"/></svg>