<?xml version="1.0" encoding="utf-8"?><svg version="1.1" id="Layer_1" xmlns="http://www.w3.org/2000/svg" xmlns:xlink="http://www.w3.org/1999/xlink" x="0px" y="0px" viewBox="0 0 110.43 123.94" style="enable-background:new 0 0 110.43 123.94" xml:space="preserve"><style type="text/css">.st0{fill-rule:evenodd;clip-rule:evenodd;stroke:#000000;stroke-width:0.5;stroke-miterlimit:2.6131;}</style><g><path class="st0" d="M78.37,79.91c-0.19,0.47-0.49,0.91-0.88,1.3L73.5,85.2l-0.02,0.02c-0.39,0.39-0.83,0.69-1.3,0.88 c-0.49,0.21-1,0.32-1.55,0.32c-0.55,0-1.07-0.11-1.55-0.32c-0.47-0.21-0.9-0.51-1.27-0.9l-2.6-2.57c-0.16,0.07-0.32,0.16-0.47,0.23 c-0.44,0.21-0.9,0.39-1.34,0.56c-0.02,0.02-0.04,0.02-0.07,0.02c-0.44,0.18-0.91,0.33-1.42,0.49c-0.16,0.05-0.32,0.11-0.49,0.14 l0,3.17c0,0.55-0.11,1.07-0.3,1.55c-0.19,0.47-0.49,0.9-0.88,1.28l-0.04,0.04c-0.39,0.37-0.83,0.67-1.3,0.86 c-0.48,0.19-0.99,0.3-1.51,0.3h-5.7c-0.55,0-1.06-0.11-1.55-0.3c-0.47-0.19-0.91-0.49-1.3-0.88c-0.39-0.39-0.69-0.83-0.88-1.3 c-0.19-0.48-0.3-0.99-0.3-1.55v-3.62c-0.18-0.07-0.35-0.12-0.53-0.19c-0.47-0.18-0.93-0.39-1.41-0.6 c-0.47-0.23-0.93-0.44-1.37-0.67c-0.14-0.07-0.28-0.16-0.42-0.23L41.7,84.2l-0.05,0.05c-0.39,0.37-0.83,0.65-1.3,0.84 c-0.47,0.19-0.98,0.28-1.51,0.28c-0.53,0-1.04-0.09-1.51-0.28c-0.47-0.19-0.91-0.46-1.3-0.83c-0.02-0.02-0.04-0.02-0.04-0.04 l-3.98-4.03c-0.39-0.37-0.7-0.81-0.9-1.28c-0.21-0.47-0.32-1-0.32-1.57c0-0.55,0.11-1.07,0.32-1.57c0.21-0.49,0.51-0.91,0.9-1.28 l2.55-2.55c-0.09-0.18-0.16-0.33-0.23-0.49c-0.19-0.44-0.39-0.9-0.58-1.39c-0.18-0.46-0.35-0.95-0.49-1.44 c-0.05-0.16-0.11-0.33-0.14-0.49h-3.17c-0.55,0-1.07-0.11-1.55-0.3c-0.47-0.19-0.9-0.49-1.28-0.88l-0.04-0.04 c-0.37-0.39-0.67-0.83-0.86-1.28c-0.19-0.48-0.3-0.99-0.3-1.51v-5.7c0-1.13,0.39-2.08,1.18-2.85c0.39-0.39,0.83-0.69,1.3-0.88 c0.48-0.19,0.99-0.3,1.55-0.3h3.62c0.07-0.18,0.12-0.35,0.19-0.53c0.18-0.47,0.39-0.93,0.6-1.41c0.23-0.48,0.44-0.93,0.67-1.37 c0.07-0.14,0.16-0.28,0.23-0.42l-2.27-2.23l-0.05-0.05c-0.37-0.39-0.65-0.83-0.84-1.3c-0.19-0.47-0.28-0.98-0.28-1.51 c0-0.53,0.09-1.04,0.28-1.51c0.19-0.47,0.46-0.91,0.83-1.3c0.02-0.02,0.02-0.04,0.04-0.04L37,38.73c0.39-0.39,0.83-0.69,1.3-0.88 c0.49-0.21,1-0.32,1.55-0.32s1.07,0.11,1.55,0.32c0.47,0.21,0.9,0.51,1.27,0.9l2.55,2.55c0.18-0.09,0.33-0.16,0.49-0.23 c0.44-0.19,0.9-0.39,1.39-0.58c0.46-0.18,0.95-0.35,1.44-0.49c0.18-0.05,0.33-0.11,0.49-0.14l0-3.17c0-0.55,0.11-1.07,0.3-1.55 c0.19-0.47,0.49-0.9,0.88-1.28l0.04-0.04c0.39-0.37,0.83-0.67,1.28-0.86c0.48-0.19,0.99-0.3,1.51-0.3h5.7 c0.55,0,1.06,0.11,1.55,0.3c0.47,0.19,0.91,0.49,1.3,0.88c0.39,0.39,0.69,0.83,0.88,1.3c0.19,0.48,0.3,0.99,0.3,1.55v3.62 c0.18,0.07,0.35,0.12,0.53,0.19c0.47,0.18,0.93,0.39,1.41,0.6c0.47,0.23,0.93,0.44,1.37,0.67c0.14,0.07,0.28,0.16,0.42,0.23 l2.23-2.23c0.39-0.39,0.83-0.69,1.3-0.9c0.49-0.21,1-0.32,1.55-0.32c0.55,0,1.06,0.11,1.55,0.32c0.49,0.21,0.91,0.49,1.3,0.9 l3.99,3.99l0.02,0.02c0.39,0.39,0.69,0.83,0.88,1.3c0.21,0.49,0.32,1,0.32,1.55c0,0.55-0.11,1.07-0.32,1.55 c-0.21,0.48-0.51,0.9-0.9,1.27l-2.55,2.6c0.07,0.16,0.16,0.32,0.23,0.47c0.18,0.4,0.37,0.84,0.56,1.32 c0.02,0.02,0.02,0.04,0.02,0.07c0.18,0.46,0.35,0.95,0.49,1.44c0.05,0.16,0.11,0.33,0.14,0.49h3.17c0.55,0,1.07,0.11,1.55,0.3 c0.47,0.19,0.9,0.49,1.28,0.88l0.04,0.04c0.37,0.39,0.67,0.83,0.86,1.28c0.19,0.48,0.3,0.99,0.3,1.51v5.7 c0,0.55-0.11,1.06-0.3,1.55c-0.19,0.47-0.49,0.91-0.88,1.32c-0.39,0.39-0.83,0.69-1.3,0.88c-0.48,0.19-0.99,0.3-1.55,0.3h-3.62 c-0.07,0.18-0.12,0.35-0.19,0.53c-0.18,0.47-0.37,0.93-0.6,1.41c-0.23,0.47-0.44,0.93-0.67,1.37c-0.07,0.14-0.16,0.28-0.23,0.42 l2.23,2.23c0.39,0.39,0.69,0.83,0.9,1.3c0.21,0.49,0.32,1,0.32,1.55c0,0.55-0.11,1.06-0.32,1.55L78.37,79.91L78.37,79.91z M44.99,116c-12.7-2.39-23.86-9.16-31.85-18.67C5.09,87.76,0.25,75.43,0.25,61.99c0-12.63,4.27-24.28,11.46-33.57 C19.04,18.93,29.41,11.9,41.37,8.8l1.78,6.86c-10.41,2.7-19.44,8.82-25.83,17.09c-6.24,8.08-9.95,18.22-9.95,29.24 c0,11.73,4.21,22.47,11.19,30.78c6.68,7.95,15.91,13.7,26.44,15.98v-7.33l13.39,10.99l-13.39,10.99L44.99,116L44.99,116L44.99,116z M65.44,7.99c12.58,2.37,23.65,9.03,31.63,18.41c8.17,9.6,13.1,22.03,13.1,35.59c0,11.93-3.8,22.97-10.26,31.98 c-6.63,9.25-16.06,16.35-27.06,20.08l-1.14-3.36l-1.14-3.36c0.28-0.09,0.56-0.19,0.83-0.29c9.21-3.31,17.11-9.38,22.72-17.2 c5.62-7.84,8.93-17.45,8.93-27.84c0-11.84-4.28-22.67-11.38-31.01c-6.67-7.84-15.82-13.49-26.24-15.76v7.29L52.05,11.52L65.44,0.53 L65.44,7.99L65.44,7.99L65.44,7.99z M65.16,61.97c0,0.69-0.07,1.35-0.19,1.99h-0.02c-0.12,0.65-0.32,1.27-0.56,1.86 c-0.26,0.62-0.56,1.2-0.91,1.71c-0.33,0.53-0.74,1.02-1.18,1.46c-0.46,0.46-0.93,0.84-1.46,1.2c-0.51,0.33-1.09,0.65-1.71,0.91 c-0.02,0.02-0.05,0.02-0.07,0.04c-0.56,0.23-1.16,0.4-1.78,0.53c-0.65,0.12-1.3,0.19-1.99,0.19c-0.69,0-1.35-0.07-1.99-0.19 c-0.65-0.12-1.27-0.32-1.86-0.56c-0.62-0.26-1.2-0.56-1.71-0.91c-0.53-0.35-1.02-0.76-1.46-1.2c-0.44-0.46-0.83-0.93-1.18-1.46 c-0.33-0.51-0.65-1.09-0.91-1.71c-0.02-0.02-0.02-0.05-0.04-0.07c-0.23-0.56-0.4-1.16-0.53-1.78c-0.12-0.65-0.19-1.3-0.19-1.99 c0-0.69,0.07-1.35,0.19-1.99c0.12-0.65,0.32-1.27,0.56-1.86c0.26-0.62,0.56-1.2,0.91-1.71c0.33-0.53,0.74-1.02,1.18-1.46 c0.46-0.46,0.93-0.84,1.46-1.2c0.51-0.33,1.09-0.65,1.71-0.92c0.02-0.02,0.05-0.02,0.07-0.04c0.58-0.23,1.18-0.4,1.79-0.53 c0.65-0.12,1.3-0.19,1.99-0.19c0.69,0,1.35,0.07,1.99,0.19c0.65,0.12,1.27,0.32,1.86,0.56c0.62,0.26,1.2,0.56,1.71,0.92 c0.53,0.35,1.02,0.76,1.46,1.2c0.44,0.46,0.83,0.93,1.18,1.46c0.33,0.51,0.65,1.09,0.91,1.71c0.02,0.02,0.02,0.05,0.04,0.07 c0.23,0.56,0.4,1.16,0.53,1.78C65.09,60.63,65.16,61.28,65.16,61.97L65.16,61.97z"/></g></svg>