<?xml version="1.0" encoding="utf-8"?>
<!-- Generator: Adobe Illustrator 27.6.1, SVG Export Plug-In . SVG Version: 6.00 Build 0)  -->
<svg version="1.1" id="레이어_1" xmlns="http://www.w3.org/2000/svg" xmlns:xlink="http://www.w3.org/1999/xlink" x="0px"
	 y="0px" viewBox="0 0 283 271" style="enable-background:new 0 0 283 271;" xml:space="preserve">
<style type="text/css">
	.st0{fill:#606060;}
</style>
<path class="st0" d="M110.97,128.07l57.88-57.88c6.63-6.63,6.63-17.38,0-24.01L157.5,34.83c-6.63-6.63-17.38-6.63-24.01,0
	l-69.31,69.31L40.83,127.5c-6.63,6.63-6.63,17.38,0,24.01l23.35,23.35l69.31,69.31c6.63,6.63,17.38,6.63,24.01,0l11.35-11.35
	c6.63-6.63,6.63-17.38,0-24.01l-57.88-57.88C104.65,144.62,104.65,134.38,110.97,128.07z"/>
<path class="st0" d="M183.54,139.5l69.31-69.31c6.63-6.63,6.63-17.38,0-24.01L241.5,34.83c-6.63-6.63-17.38-6.63-24.01,0
	l-69.31,69.31l-23.35,23.35c-6.63,6.63-6.63,17.38,0,24.01l23.35,23.35l69.31,69.31c6.63,6.63,17.38,6.63,24.01,0l11.35-11.35
	c6.63-6.63,6.63-17.38,0-24.01L183.54,139.5z"/>
</svg>
