<?xml version="1.0" encoding="utf-8"?><svg version="1.1" id="Layer_1" xmlns="http://www.w3.org/2000/svg" xmlns:xlink="http://www.w3.org/1999/xlink" x="0px" y="0px" viewBox="0 0 122.88 108.01" style="enable-background:new 0 0 122.88 108.01" xml:space="preserve"><style type="text/css">.st0{fill-rule:evenodd;clip-rule:evenodd;}</style><g><path class="st0" d="M16.35,0h90.19c8.99,0,16.35,7.36,16.35,16.35v75.32c0,8.99-7.36,16.35-16.35,16.35H16.35 C7.36,108.01,0,100.66,0,91.67V16.35C0,7.36,7.36,0,16.35,0L16.35,0z M64.64,77.54h49.62v21.2H64.64V77.54L64.64,77.54z M8.02,77.54h49.62v21.2H8.02V77.54L8.02,77.54z M8.02,21.13h49.62v21.2H8.02V21.13L8.02,21.13z M8.02,49.34h49.62v21.2H8.02V49.34 L8.02,49.34z M64.64,21.13h49.62v21.2H64.64V21.13L64.64,21.13z M64.64,49.34h49.62v21.2H64.64V49.34L64.64,49.34z"/></g></svg>