<svg xmlns="http://www.w3.org/2000/svg" shape-rendering="geometricPrecision" text-rendering="geometricPrecision" image-rendering="optimizeQuality" fill-rule="evenodd" clip-rule="evenodd" viewBox="0 0 418 512.21"><path fill-rule="nonzero" d="m246.25 47.65 83.82 88.1-85.23 1.41 1.41-89.51zm82.49 337.33c-4.06 4.07-10.66 4.07-14.73 0-4.06-4.06-4.06-10.67 0-14.73l18.58-18.58c9.74-9.74 22.57-14.61 35.4-14.61 12.79 0 25.61 4.87 35.35 14.61l.25.22c9.61 9.71 14.41 22.46 14.41 35.19 0 12.81-4.87 25.65-14.61 35.39l-18.58 18.58c-4.06 4.06-10.67 4.06-14.73 0-4.07-4.07-4.07-10.67 0-14.73l18.58-18.58c5.67-5.68 8.51-13.17 8.51-20.66 0-7.5-2.84-15-8.51-20.66l-.46-.49c-5.61-5.36-12.91-8.04-20.21-8.04-7.5 0-15 2.84-20.67 8.51l-18.58 18.58zm20.83 5.33c4.05-4.05 10.64-4.05 14.7 0 4.05 4.06 4.05 10.65 0 14.7l-53.47 53.47c-4.05 4.05-10.64 4.05-14.7 0-4.05-4.06-4.05-10.65 0-14.71l53.47-53.46zm-17.81 74.33c4.07-4.07 10.67-4.07 14.73 0 4.07 4.06 4.07 10.66 0 14.73l-18.23 18.22c-9.74 9.75-22.58 14.62-35.4 14.62-12.78 0-25.59-4.85-35.32-14.55l-.68-.72c-9.33-9.66-14.01-22.21-14.01-34.74 0-12.8 4.87-25.62 14.61-35.36l18.23-18.27c4.07-4.07 10.67-4.07 14.73 0 4.07 4.06 4.07 10.67 0 14.73l-18.22 18.22c-5.69 5.66-8.52 13.16-8.52 20.68 0 7.29 2.68 14.59 8.02 20.2l.5.46c5.67 5.68 13.17 8.52 20.66 8.52 7.5 0 15-2.84 20.67-8.51l18.23-18.23zM73.73 388.63h124.46v-19.48H73.73v19.48zm0-72.75h203.45V296.4H73.73v19.48zm0-218.24h75.03V78.16H73.73v19.48zm0 72.75h106.49v-19.48H73.73v19.48zm0 72.74h227.51v-19.47H73.73v19.47zm291.39-108.17L241.66 5.14A13.838 13.838 0 0 0 230.89 0H25.08C11.21 0 0 11.21 0 25.08v429.36c0 13.85 11.23 25.08 25.08 25.08h198.37a70.967 70.967 0 0 1-1.98-22.41H22.41V22.28h197.24v126.01c0 7.71 6.23 14.07 14.07 14.07h119.15v154.78a70.5 70.5 0 0 1 15.12-1.64c2.42 0 5 .12 7.43.38V157.12c0-7.81-.4-12.26-10.3-22.16z"/></svg>