<?xml version="1.0"?>
<svg width="122.88" height="109.57" xmlns="http://www.w3.org/2000/svg" xmlns:svg="http://www.w3.org/2000/svg" enable-background="new 0 0 122.88 109.57" version="1.1" xml:space="preserve">
 <g class="layer">
  <title>Layer 1</title>
  <g id="svg_1">
   <path d="m65.46,19.57c-0.68,0.72 -1.36,1.45 -2.2,2.32l-2.31,2.41l-2.4,-2.33c-0.71,-0.69 -1.43,-1.4 -2.13,-2.09c-7.42,-7.3 -13.01,-12.8 -24.52,-12.95c-0.45,-0.01 -0.93,0 -1.43,0.02c-6.44,0.23 -12.38,2.6 -16.72,6.65c-4.28,4 -7.01,9.67 -7.1,16.57c-0.01,0.43 0,0.88 0.02,1.37c0.69,19.27 19.13,36.08 34.42,50.01c2.95,2.69 5.78,5.27 8.49,7.88l11.26,10.85l14.15,-14.04c2.28,-2.26 4.86,-4.73 7.62,-7.37c4.69,-4.5 9.91,-9.49 14.77,-14.52c3.49,-3.61 6.8,-7.24 9.61,-10.73c2.76,-3.42 5.02,-6.67 6.47,-9.57c2.38,-4.76 3.13,-9.52 2.62,-13.97c-0.5,-4.39 -2.23,-8.49 -4.82,-11.99c-2.63,-3.55 -6.13,-6.49 -10.14,-8.5c-4.62,-2.3 -9.91,-3.39 -15.32,-2.77c-9.33,1.08 -14.3,6.35 -20.34,12.75l0,0zm-4.69,-4.72c6.9,-7.31 12.63,-13.3 24.27,-14.63c6.72,-0.77 13.3,0.57 19.03,3.45c4.95,2.48 9.27,6.1 12.51,10.47c3.27,4.42 5.46,9.61 6.1,15.19c0.65,5.66 -0.29,11.69 -3.3,17.69c-1.7,3.39 -4.22,7.03 -7.23,10.76c-2.95,3.66 -6.39,7.44 -10,11.17c-4.95,5.13 -10.21,10.17 -14.95,14.71c-2.77,2.65 -5.36,5.13 -7.54,7.29l-16.46,16.33l-2.31,2.29l-2.34,-2.25l-13.6,-13.1c-2.49,-2.39 -5.37,-5.02 -8.36,-7.75c-16.21,-14.79 -35.78,-32.62 -36.57,-54.7c-0.02,-0.54 -0.02,-1.1 -0.02,-1.68c0.12,-8.86 3.66,-16.18 9.21,-21.36c5.5,-5.13 12.97,-8.13 21.01,-8.42c0.55,-0.02 1.13,-0.03 1.74,-0.02c14.04,0.19 20.46,6.34 28.81,14.56l0,0z" fill="#ff7ac3" id="svg_2" stroke="#ff7ac3"/>
  </g>
 </g>
</svg>