<?xml version="1.0" encoding="utf-8"?><svg version="1.1" id="Layer_1" xmlns="http://www.w3.org/2000/svg" xmlns:xlink="http://www.w3.org/1999/xlink" x="0px" y="0px" viewBox="0 0 122.88 122.88" style="enable-background:new 0 0 122.88 122.88" xml:space="preserve"><g><path d="M61.44,0c8.31,0,16.25,1.66,23.49,4.66c7.53,3.12,14.29,7.68,19.95,13.34c5.66,5.66,10.22,12.43,13.34,19.95 c3,7.24,4.66,15.18,4.66,23.49c0,8.31-1.66,16.25-4.66,23.49c-3.12,7.53-7.68,14.29-13.34,19.95 c-5.66,5.66-12.43,10.22-19.95,13.34c-7.24,3-15.18,4.66-23.49,4.66s-16.25-1.66-23.49-4.66c-7.53-3.12-14.29-7.68-19.95-13.34 C12.34,99.22,7.77,92.46,4.66,84.93C1.66,77.69,0,69.75,0,61.44c0-8.31,1.66-16.25,4.66-23.49C7.77,30.42,12.34,23.66,18,18 c5.66-5.66,12.43-10.22,19.95-13.34C45.19,1.66,53.13,0,61.44,0L61.44,0z M114.93,65.33H91.79c-1.13,0-2.16-0.42-2.91-1.11 c-0.78-0.71-1.26-1.69-1.26-2.79c0-1.09,0.48-2.08,1.26-2.79c0.75-0.68,1.78-1.11,2.91-1.11h23.14c-0.45-6.33-2-12.35-4.46-17.88 c-2.69-6.06-6.48-11.52-11.11-16.16c-4.63-4.63-10.1-8.42-16.16-11.11C77.68,9.95,71.66,8.4,65.33,7.95v23.12 c0,1.13-0.42,2.16-1.11,2.91c-0.71,0.78-1.69,1.26-2.79,1.26s-2.08-0.48-2.79-1.26c-0.68-0.75-1.11-1.78-1.11-2.91V7.95 c-6.33,0.45-12.35,2-17.88,4.46c-6.06,2.69-11.52,6.48-16.16,11.11c-4.63,4.63-8.42,10.1-11.11,16.16 C9.95,45.2,8.4,51.22,7.95,57.55h22.69c1.13,0,2.16,0.42,2.91,1.11c0.78,0.71,1.26,1.69,1.26,2.79c0,1.09-0.48,2.08-1.26,2.79 c-0.75,0.68-1.78,1.11-2.91,1.11H7.95c0.45,6.33,2,12.35,4.46,17.88c2.69,6.06,6.48,11.52,11.11,16.16 c4.63,4.63,10.1,8.42,16.16,11.11c5.53,2.46,11.55,4.01,17.88,4.46v-23.7c0-1.13,0.42-2.16,1.11-2.91 c0.71-0.78,1.69-1.26,2.79-1.26s2.08,0.48,2.79,1.26c0.68,0.75,1.11,1.78,1.11,2.91v23.7c6.33-0.45,12.35-2,17.88-4.46 c6.06-2.69,11.52-6.48,16.16-11.11c4.63-4.63,8.42-10.1,11.11-16.16C112.93,77.68,114.48,71.66,114.93,65.33L114.93,65.33z"/></g></svg>