<?xml version="1.0" encoding="UTF-8"?>
<svg id="_레이어_1" data-name="레이어 1" xmlns="http://www.w3.org/2000/svg" viewBox="0 0 256 256">
  <defs>
    <style>
      .cls-1 {
        fill: #fff;
        stroke-width: 0px;
      }
    </style>
  </defs>
  <path class="cls-1" d="M89.94,89.8H.15V.01C.91-.03,1.71-.11,2.52-.11c28.31,0,56.63.01,84.94-.04,1.88,0,2.66.29,2.66,2.45-.08,28.45-.05,56.9-.06,85.35,0,.67-.07,1.34-.12,2.15ZM69.87,20.11H20.11v49.73h49.76V20.11Z"/>
  <path class="cls-1" d="M166.19,0h89.81v89.81h-89.81V0ZM186.37,20.05v49.74h49.72V20.05h-49.72Z"/>
  <path class="cls-1" d="M.08,255.82v-89.73h89.78v89.73H.08ZM20.03,235.85h49.83v-49.65H20.03v49.65Z"/>
  <path class="cls-1" d="M236.26,147.61h19.76v48.39h-47.84c0,3.18-.03,6.14,0,9.09.05,3.58.16,7.15.23,10.73,0,0,.04-.05.04-.05-.6.07-1.21.19-1.81.19-12.24.01-24.48,0-36.72,0-.52,0-1.03-.07-1.77-.12v-19.68h-40.16v3.36c0,4.74.02,9.48-.02,14.22,0,.81-.24,1.62-.37,2.43l.02-.03c-5.42-.06-10.83-.12-16.25-.18-.99-.01-1.97,0-3.14,0v-19.91h19.63v-20.06l-.07.06h20.29v-28.53l-.06.07h20.18v48.25h40.01v-19.93h27.97c0-1.11,0-2.01,0-2.91.04-8.49.07-16.98.11-25.47l-.05.06Z"/>
  <path class="cls-1" d="M108.15,147.55h-58.08v-19.99h-30.02v19.77H.09v-39.71h49.89v19.66h19.96v-19.62h20.13v19.76c6.2,0,12.14,0,18.09,0,0,0-.07-.07-.07-.07,0,6.76,0,13.51,0,20.27l.06-.06Z"/>
  <path class="cls-1" d="M127.74,49.89h20.15v40.05h-19.74c-.05,1.08-.14,1.96-.14,2.84,0,10.63,0,21.26-.01,31.89,0,.91-.11,1.82-.17,2.73l.07-.06c-6.6,0-13.2,0-19.8,0,0,0,.07.07.07.07v-57.41h19.65v-20.17l-.06.06Z"/>
  <path class="cls-1" d="M127.62,216.19h20.38v19.8h20v19.83h-39.99v-2.61c0-11.55,0-23.09-.02-34.64,0-.8-.22-1.61-.34-2.41,0,0-.03.03-.03.03Z"/>
  <path class="cls-1" d="M148.12,127.4v-19.78h60.12v19.78l.06-.06c-20.08,0-40.17,0-60.25,0l.07.06Z"/>
  <path class="cls-1" d="M208.45,236.37c-.09-5.22-.21-10.43-.25-15.65-.01-1.65.17-3.3.27-4.95,0,0-.04.05-.04.04,5.58.05,11.16.1,16.73.15.9,0,1.8,0,2.98,0v20.01h27.86v19.81h-27.8v-19.77c-1.8,0-3.38-.02-4.95,0-4.95.08-9.9.19-14.86.28l.05.05Z"/>
  <path class="cls-1" d="M127.84,30.04c.06-7.1.12-14.2.17-21.3.02-2.44-.08-4.89.07-7.33.03-.53.88-1.45,1.36-1.46,6.1-.1,12.2-.07,18.47-.07v30.09c-6.74,0-13.44,0-20.14,0,0,0,.06.06.06.06Z"/>
  <path class="cls-1" d="M236.34,127.42c-.03,6.73-.05,13.46-.08,20.19,0,0,.05-.06.05-.06-7.4-.02-14.81-.05-22.21-.04-1.89,0-3.79.15-5.68.23l.04.04c-.06-6.81-.11-13.63-.17-20.44l-.06.06c9.39.03,18.79.07,28.18.11l-.07-.08Z"/>
  <path class="cls-1" d="M127.89,176.01h-19.74c0-9.59,0-19.03,0-28.47l-.06.06c6.6,0,13.2,0,19.8,0l-.05-.05c.06,4.18.16,8.37.16,12.55,0,5.33-.11,10.65-.17,15.98,0,0,.07-.06.07-.06Z"/>
  <path class="cls-1" d="M127.83,127.4c6.76,0,13.53,0,20.29,0,0,0-.07-.06-.07-.06,0,6.76,0,13.51,0,20.27l.06-.07c-6.76,0-13.52,0-20.28,0l.05.05c0-6.75,0-13.51,0-20.26l-.07.06Z"/>
  <path class="cls-1" d="M208.4,236.32c-.07,5.26-.15,10.51-.21,15.77-.02,1.21,0,2.41,0,3.76h-19.96v-19.59c.55-.07,1.13-.21,1.7-.21,5.5-.02,11-.02,16.51,0,.67,0,1.34.2,2.01.31,0,0-.05-.04-.05-.04Z"/>
  <path class="cls-1" d="M127.81,49.82h-19.58v-19.78c6.54,0,13.08,0,19.61,0,0,0-.06-.06-.06-.06-.01,6.63-.02,13.27-.03,19.9,0,0,.06-.06.06-.06Z"/>
  <path class="cls-1" d="M236.42,127.5v-19.82h19.62v19.74c-6.6,0-13.15,0-19.69,0,0,0,.07.08.07.08Z"/>
  <path class="cls-1" d="M54.88,35.17v19.58h-19.75v-19.58h19.75Z"/>
  <path class="cls-1" d="M201.28,54.75v-19.61h19.75v19.61h-19.75Z"/>
  <path class="cls-1" d="M54.8,220.91h-19.66v-19.81h19.66v19.81Z"/>
  <path class="cls-1" d="M208.42,147.73c-.08,4.41-.17,8.83-.24,13.24-.03,2.05,0,4.1,0,6.31h-19.95v-19.62c.62-.05,1.27-.16,1.92-.16,5.43-.01,10.86-.02,16.29,0,.67,0,1.35.17,2.02.26,0,0-.04-.04-.04-.04Z"/>
</svg>