<?xml version="1.0" encoding="UTF-8"?>
<svg id="_레이어_1" data-name="레이어 1" xmlns="http://www.w3.org/2000/svg" viewBox="0 0 256 256">
  <defs>
    <style>
      .cls-1 {
        stroke-width: 0px;
      }
    </style>
  </defs>
  <path class="cls-1" d="M128.19.04c70.27-.02,127.77,57.44,127.81,127.74.04,70.9-57.4,128.89-129.37,128.16C56.91,255.25.22,199.01,0,128.54-.22,57.36,57.17.06,128.19.04ZM128.02,176.16c14.07,0,28.14.2,42.21-.06,14.18-.26,24.89-11.03,25.09-25.17.21-15.28.13-30.57.01-45.85-.06-7.75-3.24-14.19-9.16-19.24-5.21-4.45-11.38-5.96-18.09-5.95-22.17.03-44.35,0-66.52.02-5.5,0-11.02-.14-16.51.13-13.61.67-24.02,10.85-24.34,24.45-.37,15.73-.38,31.49,0,47.22.34,13.7,11.12,24.14,24.88,24.39,14.14.26,28.29.06,42.44.06Z"/>
  <path class="cls-1" d="M110.39,148.62v-41.11c11.82,6.88,23.33,13.59,35.34,20.59-11.92,6.92-23.48,13.63-35.34,20.52Z"/>
</svg>