<?xml version="1.0"?>
<svg width="256" height="256" xmlns="http://www.w3.org/2000/svg" xmlns:svg="http://www.w3.org/2000/svg" data-name="레이어 1">
 <defs>
  <style>.cls-1 {
        fill: #fff;
        stroke-width: 0px;
      }</style>
 </defs>
 <g class="layer">
  <title>Layer 1</title>
  <rect fill="#ff0000" height="114" id="svg_3" width="157" x="53" y="67.5"/>
  <path class="cls-1" d="m128.27,-0.11c70.27,-0.02 127.77,57.44 127.81,127.74c0.04,70.9 -57.4,128.89 -129.37,128.16c-69.71,-0.69 -126.4,-56.94 -126.62,-127.4c-0.23,-71.18 57.16,-128.48 128.18,-128.5zm-0.16,176.12c14.07,0 28.14,0.2 42.21,-0.06c14.18,-0.26 24.89,-11.03 25.09,-25.17c0.21,-15.28 0.13,-30.57 0.01,-45.85c-0.06,-7.75 -3.24,-14.19 -9.16,-19.24c-5.21,-4.45 -11.38,-5.96 -18.09,-5.95c-22.17,0.03 -44.35,0 -66.52,0.02c-5.5,0 -11.02,-0.14 -16.51,0.13c-13.61,0.67 -24.02,10.85 -24.34,24.45c-0.37,15.73 -0.38,31.49 0,47.22c0.34,13.7 11.12,24.14 24.88,24.39c14.14,0.26 28.29,0.06 42.44,0.06l-0.01,0z" id="svg_1"/>
  <path class="cls-1" d="m110.48,148.46l0,-41.11c11.82,6.88 23.33,13.59 35.34,20.59c-11.92,6.92 -23.48,13.63 -35.34,20.52z" id="svg_2"/>
 </g>
</svg>