<svg viewBox="0 0 122.88 107.76" xmlns="http://www.w3.org/2000/svg">
  <defs>
    <linearGradient id="rainbowFill" x1="0" y1="0" x2="122.88" y2="0" gradientUnits="userSpaceOnUse">
      <stop offset="0%" stop-color="#0000ff"/>       <!-- 파랑 (좌측) -->
      <stop offset="15%" stop-color="#00ffff"/>      <!-- 시안 -->
      <stop offset="30%" stop-color="#00ff00"/>      <!-- 초록 -->
      <stop offset="50%" stop-color="#ffff00"/>      <!-- 노랑 (중앙) -->
      <stop offset="70%" stop-color="#ff7f00"/>      <!-- 주황 -->
      <stop offset="85%" stop-color="#ff00ff"/>      <!-- 핑크 -->
      <stop offset="100%" stop-color="#8a2be2"/>     <!-- 보라 (우측) -->
    </linearGradient>
  </defs>
  <path d="M21.13,83.86h80.25l12.54-34.73c0.65,0.21,1.35,0.32,2.07,0.32c3.8,0,6.89-3.08,6.89-6.89
    c0-3.8-3.08-6.89-6.89-6.89c-3.8,0-6.89,3.08-6.89,6.89c0,1.5,0.48,2.88,1.29,4.01l-7.12,5.86c-9.97,8.2-16.22,4.4-14.27-8.34
    l1.1-7.17c0.38,0.07,0.78,0.1,1.18,0.1c3.8,0,6.89-3.08,6.89-6.89c0-3.8-3.08-6.89-6.89-6.89c-3.8,0-6.89,3.08-6.89,6.89
    c0,2.17,1.01,4.11,2.58,5.37l-1.71,2.7c-8.38,12.58-14.56,7.76-17.03-4.67l-4.41-20.31c2.47-1.05,4.21-3.49,4.21-6.35
    c0-3.8-3.08-6.89-6.89-6.89c-3.8,0-6.89,3.08-6.89,6.89c0,3.18,2.15,5.85,5.07,6.65L56.46,25.1c-2.48,10.61-5.45,31.75-18.88,13.73
    l-2.19-2.98c1.73-1.25,2.86-3.29,2.86-5.59c0-3.8-3.08-6.89-6.89-6.89c-3.8,0-6.89,3.08-6.89,6.89c0,3.8,3.08,6.89,6.89,6.89
    c0.53,0,1.05-0.06,1.55-0.18l0.46,4.68c0.9,6.39,2.05,15.04-5.29,14.63c-3.64-0.2-5.01-1.44-7.79-3.42l-7.94-5.63
    c0.89-1.16,1.42-2.61,1.42-4.19c0-3.8-3.08-6.89-6.89-6.89c-3.8,0-6.89,3.08-6.89,6.89s3.08,6.89,6.89,6.89
    c0.9,0,1.75-0.17,2.54-0.48L21.13,83.86z M21.07,93.47h80.51v14.29H21.07V93.47z"
    fill="url(#rainbowFill)" stroke="#333" stroke-width="1.5"/>
</svg>
