<?xml version="1.0"?>
<svg width="123.14" height="123.54" xmlns="http://www.w3.org/2000/svg" xmlns:svg="http://www.w3.org/2000/svg" data-name="Layer 1">
 <defs>
  <style>.cls-1{stroke:#000;stroke-miterlimit:22.93;stroke-width:0.57px;fill-rule:evenodd;}</style>
 </defs>
 <title>pushpin</title>
 <g class="layer">
  <title>Layer 1</title>
  <path class="cls-1" d="m121.59,36.81l-35.29,-35.29c-3,-3 -7.77,0.09 -9.2,2.74c-0.24,0.45 0.19,0.86 -0.2,3.91a46.16,46.16 0 0 1 -2.72,11.32l-15.7,15.7c-6.26,6.27 -15.22,3.48 -22.87,-0.32c-1.61,-0.8 -3.68,-2.57 -5.47,-0.78l-6.65,6.65a2.5,2.5 0 0 0 0,3.53l55.79,55.78a2.5,2.5 0 0 0 3.53,0l6.64,-6.65c1.77,-1.77 -0.49,-4.06 -1.41,-6c-3.4,-7 -6.45,-16.42 -0.78,-22.09l16.39,-16.31a84.08,84.08 0 0 1 11.35,-2.62c3.09,-0.49 3.47,-0.1 3.91,-0.39c2.7,-1.75 5.7,-6.16 2.68,-9.18zm-67.73,45.58l-12.71,-12.7l-40.77,51.56l1.92,1.91l51.56,-40.77z" fill="#ffffff" id="svg_1"/>
 </g>
</svg>