<?xml version="1.0" standalone="no"?>
<!DOCTYPE svg PUBLIC "-//W3C//DTD SVG 20010904//EN"
 "http://www.w3.org/TR/2001/REC-SVG-20010904/DTD/svg10.dtd">
<svg version="1.0" xmlns="http://www.w3.org/2000/svg"
 width="200.000000pt" height="200.000000pt" viewBox="0 0 200.000000 200.000000"
 preserveAspectRatio="xMidYMid meet">
<metadata>
Created by potrace 1.14, written by Peter Selinger 2001-2017
</metadata>
<g transform="translate(0.000000,200.000000) scale(0.100000,-0.100000)"
fill="#000000" stroke="none">
<path d="M830 1985 c-85 -16 -238 -68 -290 -99 -19 -12 -47 -28 -62 -35 -47
-24 -184 -138 -225 -188 -167 -202 -243 -397 -248 -638 -4 -141 13 -252 56
-368 119 -328 398 -571 737 -643 90 -19 320 -18 414 1 382 79 680 377 774 773
21 90 17 354 -7 446 -52 203 -170 393 -329 531 -105 90 -287 179 -433 211 -97
22 -293 26 -387 9z m255 -190 c97 -8 204 -38 286 -80 16 -9 32 -15 35 -14 4 0
10 -3 13 -8 9 -13 91 -75 91 -69 0 3 30 -27 67 -67 36 -40 72 -77 80 -84 8 -6
14 -14 14 -17 -2 -9 31 -59 44 -68 5 -4 7 -8 3 -8 -4 0 4 -23 18 -51 96 -190
93 -481 -7 -683 -48 -98 -63 -118 -159 -215 -74 -74 -117 -111 -131 -111 -5 0
-9 -5 -9 -11 0 -5 -4 -8 -9 -4 -6 3 -14 -2 -19 -11 -5 -9 -12 -15 -16 -14 -13
4 -66 -22 -66 -32 0 -5 -3 -7 -8 -4 -4 2 -32 -4 -62 -14 -79 -26 -132 -34
-245 -34 -97 0 -164 6 -195 17 -18 7 -93 31 -100 32 -25 6 -127 62 -168 93
-73 55 -192 170 -192 186 0 2 -15 27 -34 54 -55 82 -101 217 -111 327 -3 33
-7 68 -9 78 -2 16 4 78 18 172 5 35 43 148 63 188 7 15 10 27 6 27 -4 0 2 7
13 15 10 8 15 15 11 15 -4 0 -3 6 2 13 90 110 110 135 108 138 -1 2 0 3 1 2
10 -4 40 32 35 41 -3 6 -3 8 2 4 6 -6 86 50 105 73 3 4 32 20 65 36 51 26 82
38 175 70 17 6 37 10 130 21 36 4 70 7 75 6 6 -1 42 -5 80 -9z"/>
</g>
</svg>
