<?xml version="1.0"?>
<svg width="122.88" height="122.88" xmlns="http://www.w3.org/2000/svg" xmlns:svg="http://www.w3.org/2000/svg" enable-background="new 0 0 122.88 122.88" version="1.1" xml:space="preserve">
 <style type="text/css">
  <![CDATA[
	.st0{fill:#FFFFFF;}
	.st1{fill:#00B900;}
]]>
 </style>
 <g class="layer">
  <title>Layer 1</title>
  <g id="svg_10" transform="translate(0 -1) translate(0 -1) matrix(1.34778 0 0 1.34778 -20.7981 -20.4791)">
   <path class="st0" d="m105.98,56.04c0,-20.02 -20.07,-36.31 -44.74,-36.31c-24.67,0 -44.74,16.29 -44.74,36.31c0,17.95 15.92,32.98 37.42,35.82c1.46,0.31 3.44,0.96 3.94,2.21c0.45,1.13 0.29,2.9 0.14,4.04c0,0 -0.52,3.16 -0.64,3.83c-0.2,1.13 -0.9,4.42 3.88,2.41c4.77,-2.01 25.77,-15.17 35.15,-25.97l0,0c6.48,-7.12 9.59,-14.33 9.59,-22.34l0,0z" id="svg_3"/>
   <path class="st1" d="m52.15,46.36l-3.14,0c-0.48,0 -0.87,0.39 -0.87,0.87l0,19.49c0,0.48 0.39,0.87 0.87,0.87l3.14,0c0.48,0 0.87,-0.39 0.87,-0.87l0,-19.49c0,-0.48 -0.39,-0.87 -0.87,-0.87l0,0z" id="svg_4"/>
   <path class="st1" d="m73.75,46.36l-3.14,0c-0.48,0 -0.87,0.39 -0.87,0.87l0,11.58l-8.93,-12.06c-0.02,-0.03 -0.04,-0.06 -0.07,-0.09c0,0 0,0 0,-0.01c-0.02,-0.02 -0.04,-0.04 -0.05,-0.05c-0.01,0 -0.01,-0.01 -0.02,-0.02c-0.02,-0.01 -0.03,-0.03 -0.05,-0.04c-0.01,-0.01 -0.01,-0.01 -0.02,-0.02c-0.01,-0.01 -0.03,-0.02 -0.04,-0.03c-0.01,-0.01 -0.02,-0.01 -0.03,-0.02c-0.02,-0.01 -0.03,-0.02 -0.05,-0.03c-0.01,0 -0.02,-0.01 -0.03,-0.01c-0.02,-0.01 -0.03,-0.02 -0.05,-0.02c-0.01,0 -0.02,-0.01 -0.03,-0.01c-0.02,-0.01 -0.03,-0.01 -0.05,-0.02c-0.01,0 -0.02,0 -0.03,-0.01c-0.02,0 -0.03,-0.01 -0.05,-0.01c-0.01,0 -0.02,0 -0.04,-0.01c-0.02,0 -0.03,0 -0.05,-0.01c-0.02,0 -0.03,0 -0.04,0c-0.01,0 -0.02,0 -0.03,0l-3.14,0c-0.48,0 -0.87,0.39 -0.87,0.87l0,19.49c0,0.48 0.39,0.87 0.87,0.87l3.14,0c0.48,0 0.87,-0.39 0.87,-0.87l0,-11.55l8.94,12.08c0.06,0.09 0.14,0.16 0.22,0.21c0,0 0.01,0 0.01,0.01c0.02,0.01 0.04,0.02 0.05,0.03c0.01,0 0.02,0.01 0.03,0.01c0.01,0.01 0.03,0.01 0.04,0.02s0.03,0.01 0.04,0.02c0.01,0 0.02,0.01 0.03,0.01c0.02,0.01 0.04,0.01 0.06,0.02c0,0 0.01,0 0.01,0c0.07,0.02 0.15,0.03 0.22,0.03l3.14,0c0.48,0 0.87,-0.39 0.87,-0.87l0,-19.49c0.01,-0.48 -0.38,-0.87 -0.86,-0.87l0,0z" id="svg_5"/>
   <path class="st1" d="m44.59,62.71l-8.53,0l0,-15.48c0,-0.48 -0.39,-0.87 -0.87,-0.87l-3.14,0c-0.48,0 -0.87,0.39 -0.87,0.87l0,19.49c0,0.23 0.09,0.45 0.24,0.6c0,0 0.01,0.01 0.01,0.01c0,0 0.01,0.01 0.01,0.01c0.16,0.15 0.37,0.24 0.6,0.24l12.54,0c0.48,0 0.87,-0.39 0.87,-0.87l0,-3.14c0.01,-0.46 -0.38,-0.86 -0.86,-0.86l0,0z" id="svg_6"/>
   <path class="st1" d="m91.08,51.24c0.48,0 0.87,-0.39 0.87,-0.87l0,-3.14c0,-0.48 -0.39,-0.87 -0.87,-0.87l-12.54,0c-0.23,0 -0.45,0.09 -0.6,0.25c0,0 -0.01,0.01 -0.01,0.01c0,0.01 -0.01,0.01 -0.01,0.02c-0.15,0.16 -0.24,0.37 -0.24,0.6l0,19.49c0,0.23 0.09,0.45 0.24,0.6c0,0 0.01,0.01 0.01,0.01c0,0 0.01,0.01 0.01,0.01c0.16,0.15 0.37,0.25 0.6,0.25l12.54,0c0.48,0 0.87,-0.39 0.87,-0.87l0,-3.14c0,-0.48 -0.39,-0.87 -0.87,-0.87l-8.53,0l0,-3.29l8.53,0c0.48,0 0.87,-0.39 0.87,-0.87l0,-3.14c0,-0.48 -0.39,-0.87 -0.87,-0.87l-8.53,0l0,-3.29l8.53,0l0,-0.02z" id="svg_7"/>
  </g>
 </g>
</svg>